<svg xmlns="http://www.w3.org/2000/svg" viewBox="0 0 280 70" width="280" height="70">
  <defs>
    <style>
      @import url('https://fonts.googleapis.com/css2?family=Noto+Sans:wght@900&amp;display=swap');
      .title-text {
        font-family: 'Noto Sans', 'Arial Black', sans-serif;
        font-weight: 900;
        font-size: 36px;
        fill: #FFFFFF;
        letter-spacing: -0.5px;
      }
      .sm-text {
        font-family: 'Noto Sans', sans-serif;
        font-weight: 900;
        font-size: 20px;
        fill: #00E5FF;
      }
    </style>

    <linearGradient id="starNavyGradDark1" x1="0%" y1="0%" x2="100%" y2="100%">
      <stop offset="0%" stop-color="#00E5FF"/>
      <stop offset="35%" stop-color="#0052D4"/>
      <stop offset="75%" stop-color="#0A1931"/>
      <stop offset="100%" stop-color="#040D21"/>
    </linearGradient>

    <radialGradient id="starCoreGlowDark1" cx="50%" cy="50%" r="50%">
      <stop offset="0%" stop-color="#FFFFFF" stop-opacity="0.9"/>
      <stop offset="50%" stop-color="#00E5FF" stop-opacity="0.6"/>
      <stop offset="100%" stop-color="#0052D4" stop-opacity="0"/>
    </radialGradient>
  </defs>

  <g transform="translate(4, 3)">
    <path d="M 32 3 Q 32 32 61 32 Q 32 32 32 61 Q 32 32 3 32 Q 32 32 32 3 Z" fill="url(#starNavyGradDark1)"/>
    <path d="M 32 7 Q 32 32 56 32 Q 32 32 32 56 Q 32 32 8 32 Q 32 32 32 7 Z" fill="url(#starNavyGradDark1)" stroke="#00E5FF" stroke-width="1.5"/>
    <path d="M 32 18 Q 32 32 46 32 Q 32 32 32 46 Q 32 32 18 32 Q 32 32 32 18 Z" fill="url(#starCoreGlowDark1)"/>
    <circle cx="32" cy="32" r="2.5" fill="#FFFFFF"/>
  </g>

  <g transform="translate(80, 44)">
    <text x="0" y="0" class="title-text">Nexus<tspan class="sm-text">℠</tspan></text>
  </g>
</svg>
